<svg width="425" height="96" viewBox="0 0 425 96" fill="none" xmlns="http://www.w3.org/2000/svg">
<g clip-path="url(#clip0_1_24)">
<path d="M385.884 27.5707C381.434 31.6637 376.951 33.17 372.992 32.1549C365.826 30.3212 360.492 19.7776 360.492 0.196472H376.853C376.853 12.7048 378.587 19.6466 381.826 21.0218C384.051 22.1351 387.258 21.0218 390.596 16.9288L392.592 18.4023L406.433 0.196472H424.757L402.604 29.6663C404.354 28.6168 406.334 28.0141 408.371 27.9113C410.409 27.8085 412.44 28.2088 414.286 29.0769C421.092 32.6788 425.934 43.6809 425.934 62.1487H409.574C409.574 46.5624 406.727 38.7365 403.03 36.7391C400.445 35.3966 397.205 36.7391 394.489 40.7339L378.293 62.2141H359.969L385.884 27.5707Z" fill="white"/>
<path d="M0 3.27441H15.7388V14.473H0V3.27441ZM0.327211 18.4023H15.4444V61.6902H0.327211V18.4023Z" fill="white"/>
<path d="M52.1247 29.8955C49.5752 29.9561 47.0774 30.6269 44.8401 31.8517C42.6028 33.0765 40.6912 34.8198 39.2653 36.9356V30.8451H23.9846V63H39.2653V50.6882C39.2653 45.9075 41.883 43.3534 45.6459 43.3534C49.4089 43.3534 51.7975 45.9075 51.7975 50.6882V63H66.9146V45.842C66.8492 36.0187 61.4175 29.8955 52.1247 29.8955Z" fill="white"/>
<path d="M74.7023 4.55145H89.8849V10.6419C91.3389 8.5006 93.2882 6.74235 95.5669 5.51666C97.8456 4.29097 100.386 3.63409 102.973 3.60187C112.266 3.60187 117.698 9.59407 117.698 19.5156V47.8394H102.45V24.3945C102.45 19.6138 100.028 17.027 96.2982 17.027C92.568 17.027 89.754 19.6138 89.754 24.3945V47.8394H74.7023V4.55145Z" fill="white"/>
<path d="M156.734 2.09563C156.801 3.33172 156.615 4.56844 156.188 5.73019C155.761 6.89193 155.101 7.95428 154.25 8.85228C153.398 9.75029 152.373 10.4651 151.236 10.9529C150.099 11.4408 148.875 11.6915 147.638 11.6897C146.383 11.6693 145.145 11.3965 143.998 10.8878C142.851 10.379 141.818 9.64452 140.96 8.72807C140.102 7.81162 139.437 6.7319 139.005 5.55312C138.572 4.37435 138.381 3.12059 138.443 1.86642V1.93191C138.377 1.28964 138.377 0.642273 138.443 0L123.817 0C123.817 0.68763 123.817 1.37526 123.817 2.09563C123.871 5.14266 124.532 8.14824 125.761 10.9365C126.99 13.7248 128.763 16.2399 130.975 18.3345C133.187 20.4291 135.794 22.0613 138.644 23.1356C141.494 24.2099 144.529 24.7046 147.572 24.591C150.626 24.7225 153.676 24.241 156.541 23.1748C159.406 22.1087 162.029 20.4793 164.255 18.3829C166.481 16.2865 168.265 13.7654 169.502 10.9681C170.739 8.1709 171.405 5.15414 171.459 2.09563V1.93191C171.492 1.28838 171.492 0.643536 171.459 0L156.538 0C156.669 0.690745 156.735 1.39244 156.734 2.09563Z" fill="white"/>
<path d="M172.178 19.2209H188.179L196.49 44.5322L204.9 19.2209H220.573L203.296 62.8363H189.455L172.178 19.2209Z" fill="white"/>
<path d="M242.136 30.8779C236.138 30.7491 230.177 31.864 224.63 34.1523L227.902 44.7942C231.65 43.3029 235.649 42.547 239.682 42.5676C245.506 42.5676 248.32 45.1216 248.32 49.6731V50.3935C244.973 49.2463 241.453 48.6815 237.915 48.7235C227.772 48.7235 220.966 53.275 220.966 62.3124C220.949 62.5085 220.949 62.7056 220.966 62.9018H235.723C235.575 62.4244 235.498 61.928 235.494 61.4283C235.494 58.1538 237.948 56.0582 242.431 56.0582C244.49 56.0469 246.532 56.4246 248.451 57.1715V59.1689C248.469 60.5293 248.106 61.8676 247.404 63.0327H263.143V49.935C263.363 47.4457 263.063 44.9378 262.263 42.5704C261.463 40.2031 260.181 38.0278 258.497 36.1824C255.225 32.7443 249.826 30.8779 242.136 30.8779Z" fill="white"/>
<path d="M273.254 48.2651V30.5832H268.313V18.4023H273.417V7.43295H288.535V18.4023H298.613V30.5832H288.371V45.2853C288.371 48.5598 289.745 49.6076 292.527 49.6076C294.53 49.5693 296.499 49.0767 298.286 48.1668V60.0203C295.042 61.7396 291.42 62.6177 287.749 62.5743C278.555 62.5743 273.254 58.5795 273.254 48.2651Z" fill="white"/>
<path d="M323.514 0C322.126 1.60328 321.02 3.43002 320.241 5.40281V0H305.026V39.9808H320.209V26.4574C320.209 16.4376 324.593 11.9517 332.61 11.9517H333.755V0H323.514Z" fill="white"/>
<path d="M339.318 4.51871H355.089V15.7173H339.318V4.51871ZM339.645 19.6466H354.762V62.9345H339.645V19.6466Z" fill="white"/>
<path d="M74.7023 54.4865V63H116.618C115.751 60.0831 113.91 57.5521 111.403 55.8298C108.896 54.1075 105.874 53.2982 102.842 53.5369C100.256 53.5691 97.7147 54.226 95.436 55.4517C93.1573 56.6774 91.208 58.4356 89.754 60.5769V54.4865H74.7023Z" fill="white"/>
<path d="M147.638 29.4699C144.567 29.3335 141.501 29.8168 138.621 30.8911C135.742 31.9653 133.107 33.6085 130.876 35.7228C128.644 37.8371 126.86 40.3792 125.63 43.1977C124.401 46.0163 123.751 49.0536 123.718 52.1289C123.71 55.9237 124.679 59.6567 126.532 62.9673H168.546C170.457 59.628 171.462 55.8461 171.459 51.9979V51.8342C171.387 48.7926 170.711 45.7956 169.471 43.0181C168.23 40.2405 166.449 37.7379 164.232 35.6563C162.014 33.5746 159.405 31.9555 156.556 30.8934C153.707 29.8312 150.675 29.3473 147.638 29.4699ZM156.734 52.3909C156.801 53.6285 156.615 54.8668 156.188 56.0303C155.761 57.1938 155.102 58.2582 154.251 59.1588C153.4 60.0594 152.375 60.7772 151.238 61.2687C150.101 61.7602 148.876 62.015 147.638 62.0177C146.383 61.9972 145.145 61.7245 143.998 61.2157C142.851 60.707 141.818 59.9725 140.96 59.056C140.102 58.1396 139.437 57.0599 139.005 55.8811C138.572 54.7023 138.381 53.4486 138.443 52.1944V52.0307C138.334 50.7795 138.486 49.5193 138.891 48.3304C139.296 47.1416 139.944 46.0502 140.794 45.1259C141.643 44.2016 142.676 43.4647 143.826 42.9622C144.977 42.4597 146.219 42.2026 147.474 42.2074C148.731 42.2281 149.972 42.5006 151.123 43.0086C152.273 43.5166 153.311 44.2499 154.174 45.1654C155.037 46.0809 155.708 47.1599 156.147 48.339C156.587 49.518 156.787 50.7733 156.734 52.0307V52.3909Z" fill="white"/>
<path d="M320.209 55.3378V46.5951H305.026V62.9673H326.72C328.582 62.182 330.59 61.8025 332.61 61.8539H333.755V45.842C326.589 45.5473 322.696 49.4766 320.209 55.3378Z" fill="white"/>
<path d="M184.612 0L189.455 12.1809H203.296L208.106 0H184.612Z" fill="white"/>
<path d="M227.902 0C225.727 1.02431 223.905 2.67381 222.669 4.73822C221.434 6.80262 220.841 9.18842 220.966 11.5915C220.966 20.1377 227.215 24.9511 235.428 24.9511C237.817 25.0437 240.198 24.6174 242.406 23.7017C244.615 22.7861 246.599 21.4026 248.222 19.6466V24.2308H263.176V0H227.902ZM248.484 8.48077C248.512 9.4669 248.33 10.4477 247.95 11.3578C247.569 12.2679 246.999 13.0865 246.278 13.7588C245.556 14.4312 244.7 14.9419 243.766 15.2571C242.832 15.5722 241.841 15.6844 240.86 15.5863C240.197 15.6599 239.526 15.5929 238.891 15.3896C238.256 15.1863 237.671 14.8512 237.173 14.4063C236.676 13.9613 236.279 13.4165 236.006 12.8074C235.734 12.1983 235.592 11.5385 235.592 10.8711C235.592 7.59667 238.046 5.50104 242.529 5.50104C244.562 5.477 246.581 5.83234 248.484 6.54886V8.48077Z" fill="white"/>
<path d="M39.1999 0.0327443V0H23.9846V23.4777H39.1999V0.0327443Z" fill="white"/>
<path d="M51.7321 0V0.0327443V23.4777H66.8492V0H51.7321Z" fill="white"/>
</g>
<path d="M77.56 90.36C74.032 90.36 71.2 87.528 71.2 84C71.2 80.472 74.032 77.64 77.56 77.64C80.008 77.64 81.928 79.008 82.888 81.024V78H83.968V90H82.888V86.976C81.928 88.992 80.008 90.36 77.56 90.36ZM72.28 84C72.28 86.952 74.608 89.304 77.56 89.304C80.512 89.304 82.888 86.952 82.888 84C82.888 81.048 80.512 78.672 77.56 78.672C74.608 78.672 72.28 81.048 72.28 84ZM96.2911 82.704C96.2911 80.304 94.7791 78.672 92.6911 78.672C90.3391 78.672 88.4191 80.784 88.4191 83.184V90H87.3391V78H88.4191V80.52C89.2351 78.816 90.8431 77.64 92.8111 77.64C95.3791 77.64 97.3711 79.68 97.3711 82.704V90H96.2911V82.704ZM108.358 74.928C107.854 74.928 107.446 74.544 107.446 74.04C107.446 73.536 107.854 73.128 108.358 73.128C108.838 73.128 109.246 73.536 109.246 74.04C109.246 74.544 108.838 74.928 108.358 74.928ZM107.806 90V78H108.886V90H107.806ZM121.322 82.704C121.322 80.304 119.81 78.672 117.722 78.672C115.37 78.672 113.45 80.784 113.45 83.184V90H112.37V78H113.45V80.52C114.266 78.816 115.874 77.64 117.842 77.64C120.41 77.64 122.402 79.68 122.402 82.704V90H121.322V82.704ZM134.658 82.704C134.658 80.304 133.146 78.672 131.058 78.672C128.706 78.672 126.786 80.784 126.786 83.184V90H125.706V78H126.786V80.52C127.602 78.816 129.21 77.64 131.178 77.64C133.746 77.64 135.738 79.68 135.738 82.704V90H134.658V82.704ZM144.591 90.36C141.063 90.36 138.231 87.528 138.231 84C138.231 80.472 141.063 77.64 144.591 77.64C148.119 77.64 150.951 80.472 150.951 84C150.951 87.528 148.119 90.36 144.591 90.36ZM139.311 84C139.311 86.952 141.639 89.304 144.591 89.304C147.543 89.304 149.871 86.952 149.871 84C149.871 81.048 147.543 78.672 144.591 78.672C141.639 78.672 139.311 81.048 139.311 84ZM156.713 90L151.577 78H152.777L157.361 88.848L161.945 78H163.121L157.985 90H156.713ZM170.115 90.36C166.587 90.36 163.755 87.528 163.755 84C163.755 80.472 166.587 77.64 170.115 77.64C172.563 77.64 174.483 79.008 175.443 81.024V78H176.523V90H175.443V86.976C174.483 88.992 172.563 90.36 170.115 90.36ZM164.835 84C164.835 86.952 167.163 89.304 170.115 89.304C173.067 89.304 175.443 86.952 175.443 84C175.443 81.048 173.067 78.672 170.115 78.672C167.163 78.672 164.835 81.048 164.835 84ZM184.198 90.36C182.158 90.36 181.27 89.112 181.27 87.12V79.032H178.606V78H181.27V74.88H182.35V78H185.734V79.032H182.35V87.12C182.35 88.704 182.926 89.304 184.198 89.304C184.63 89.304 185.278 89.184 185.734 88.944V90C185.278 90.24 184.678 90.36 184.198 90.36ZM189.006 74.928C188.502 74.928 188.094 74.544 188.094 74.04C188.094 73.536 188.502 73.128 189.006 73.128C189.486 73.128 189.894 73.536 189.894 74.04C189.894 74.544 189.486 74.928 189.006 74.928ZM188.454 90V78H189.534V90H188.454ZM196.603 90L191.467 78H192.667L197.251 88.848L201.835 78H203.011L197.875 90H196.603ZM210.005 90.36C206.477 90.36 203.645 87.528 203.645 84C203.645 80.472 206.477 77.64 210.005 77.64C213.869 77.64 216.101 80.904 215.885 84.552H204.749C205.013 87.216 207.245 89.304 210.005 89.304C211.637 89.304 213.077 88.608 214.013 87.48L214.853 88.128C213.677 89.496 211.925 90.36 210.005 90.36ZM204.749 83.496H214.781C214.661 81.24 213.101 78.672 210.005 78.672C207.221 78.672 204.989 80.784 204.749 83.496ZM241.866 82.704C241.866 80.232 240.618 78.672 238.626 78.672C236.25 78.672 234.882 80.688 234.882 83.064V90H233.802V82.704C233.802 80.232 232.674 78.672 230.682 78.672C228.306 78.672 226.818 80.688 226.818 83.064V90H225.738V78H226.818V80.136C227.562 78.672 228.906 77.64 230.802 77.64C232.65 77.64 233.946 78.696 234.546 80.424C235.242 78.744 236.658 77.64 238.746 77.64C241.314 77.64 242.946 79.68 242.946 82.704V90H241.866V82.704ZM251.818 90.36C248.29 90.36 245.458 87.528 245.458 84C245.458 80.472 248.29 77.64 251.818 77.64C254.266 77.64 256.186 79.008 257.146 81.024V78H258.226V90H257.146V86.976C256.186 88.992 254.266 90.36 251.818 90.36ZM246.538 84C246.538 86.952 248.866 89.304 251.818 89.304C254.77 89.304 257.146 86.952 257.146 84C257.146 81.048 254.77 78.672 251.818 78.672C248.866 78.672 246.538 81.048 246.538 84ZM261.597 90V78H262.677V80.712C263.565 79.032 265.293 77.88 266.925 77.88V78.912C264.909 78.912 262.677 80.808 262.677 83.064V90H261.597ZM277.462 87.024C277.462 84.672 276.502 82.944 274.03 82.944C271.798 82.944 269.614 85.248 269.614 87.384V90H268.534V73.2H269.614V84.624C269.974 84.072 270.406 83.568 270.814 83.184L276.358 78H277.918L273.478 82.056C276.166 81.552 278.542 83.16 278.542 87.024V90H277.462V87.024ZM286.904 90.36C283.376 90.36 280.544 87.528 280.544 84C280.544 80.472 283.376 77.64 286.904 77.64C290.768 77.64 293 80.904 292.784 84.552H281.648C281.912 87.216 284.144 89.304 286.904 89.304C288.536 89.304 289.976 88.608 290.912 87.48L291.752 88.128C290.576 89.496 288.824 90.36 286.904 90.36ZM281.648 83.496H291.68C291.56 81.24 290 78.672 286.904 78.672C284.12 78.672 281.888 80.784 281.648 83.496ZM298.995 90.36C296.955 90.36 296.067 89.112 296.067 87.12V79.032H293.403V78H296.067V74.88H297.147V78H300.531V79.032H297.147V87.12C297.147 88.704 297.723 89.304 298.995 89.304C299.427 89.304 300.075 89.184 300.531 88.944V90C300.075 90.24 299.475 90.36 298.995 90.36ZM303.803 74.928C303.299 74.928 302.891 74.544 302.891 74.04C302.891 73.536 303.299 73.128 303.803 73.128C304.283 73.128 304.691 73.536 304.691 74.04C304.691 74.544 304.283 74.928 303.803 74.928ZM303.251 90V78H304.331V90H303.251ZM316.768 82.704C316.768 80.304 315.256 78.672 313.168 78.672C310.816 78.672 308.896 80.784 308.896 83.184V90H307.816V78H308.896V80.52C309.712 78.816 311.32 77.64 313.288 77.64C315.856 77.64 317.848 79.68 317.848 82.704V90H316.768V82.704ZM326.701 95.16C324.805 95.16 323.125 94.584 321.829 93.408L322.549 92.568C323.629 93.528 325.045 94.104 326.701 94.104C329.845 94.104 332.029 91.656 332.029 87.768V86.976C331.069 88.992 329.149 90.36 326.701 90.36C323.173 90.36 320.341 87.528 320.341 84C320.341 80.472 323.173 77.64 326.701 77.64C329.125 77.64 331.069 78.96 332.029 80.928V78H333.109V87.768C333.109 92.328 330.373 95.16 326.701 95.16ZM321.421 84C321.421 86.952 323.749 89.304 326.701 89.304C329.653 89.304 332.029 86.952 332.029 84C332.029 81.048 329.653 78.672 326.701 78.672C323.749 78.672 321.421 81.048 321.421 84ZM349.083 90.36C345.555 90.36 342.723 87.528 342.723 84C342.723 80.472 345.555 77.64 349.083 77.64C351.531 77.64 353.451 79.008 354.411 81.024V78H355.491V90H354.411V86.976C353.451 88.992 351.531 90.36 349.083 90.36ZM343.803 84C343.803 86.952 346.131 89.304 349.083 89.304C352.035 89.304 354.411 86.952 354.411 84C354.411 81.048 352.035 78.672 349.083 78.672C346.131 78.672 343.803 81.048 343.803 84ZM364.388 95.16C362.492 95.16 360.812 94.584 359.516 93.408L360.236 92.568C361.316 93.528 362.732 94.104 364.388 94.104C367.532 94.104 369.716 91.656 369.716 87.768V86.976C368.756 88.992 366.836 90.36 364.388 90.36C360.86 90.36 358.028 87.528 358.028 84C358.028 80.472 360.86 77.64 364.388 77.64C366.812 77.64 368.756 78.96 369.716 80.928V78H370.796V87.768C370.796 92.328 368.06 95.16 364.388 95.16ZM359.108 84C359.108 86.952 361.436 89.304 364.388 89.304C367.34 89.304 369.716 86.952 369.716 84C369.716 81.048 367.34 78.672 364.388 78.672C361.436 78.672 359.108 81.048 359.108 84ZM379.693 90.36C376.165 90.36 373.333 87.528 373.333 84C373.333 80.472 376.165 77.64 379.693 77.64C383.557 77.64 385.789 80.904 385.573 84.552H374.437C374.701 87.216 376.933 89.304 379.693 89.304C381.325 89.304 382.765 88.608 383.701 87.48L384.541 88.128C383.365 89.496 381.613 90.36 379.693 90.36ZM374.437 83.496H384.469C384.349 81.24 382.789 78.672 379.693 78.672C376.909 78.672 374.677 80.784 374.437 83.496ZM396.924 82.704C396.924 80.304 395.412 78.672 393.324 78.672C390.972 78.672 389.052 80.784 389.052 83.184V90H387.972V78H389.052V80.52C389.868 78.816 391.476 77.64 393.444 77.64C396.012 77.64 398.004 79.68 398.004 82.704V90H396.924V82.704ZM406.857 90.36C403.329 90.36 400.497 87.528 400.497 84C400.497 80.472 403.329 77.64 406.857 77.64C408.801 77.64 410.529 78.504 411.705 79.872L410.889 80.52C409.953 79.392 408.417 78.672 406.857 78.672C403.905 78.672 401.577 81.048 401.577 84C401.577 86.952 403.905 89.304 406.857 89.304C408.417 89.304 409.953 88.608 410.889 87.48L411.705 88.128C410.529 89.496 408.801 90.36 406.857 90.36ZM414.452 94.104C415.94 94.104 416.924 92.976 417.572 91.368L418.1 90.048L412.436 78H413.636L418.604 88.752L422.852 78H424.028L418.676 91.368C417.74 93.72 416.324 95.16 414.452 95.16V94.104Z" fill="white"/>
<defs>
<clipPath id="clip0_1_24">
<rect width="424" height="63" fill="white"/>
</clipPath>
</defs>
</svg>
